<svg width="60" height="60" viewBox="0 0 60 60" fill="none" xmlns="http://www.w3.org/2000/svg">
<g clip-path="url(#clip0_5_99)">
<path fill-rule="evenodd" clip-rule="evenodd" d="M38.3397 17.5075H54.2287V12.9553H38.3397V17.5075ZM42.1038 27.4403C41.0913 28.4704 40.4529 29.866 40.1918 31.627H52.5495C52.419 29.7477 51.777 28.3277 50.641 27.3498C49.491 26.3788 48.0763 25.895 46.383 25.895C44.5485 25.895 43.1163 26.4101 42.1038 27.4403ZM52.8282 21.3289C54.7438 22.1711 56.3207 23.5075 57.5625 25.3312C58.6949 26.9391 59.4216 28.8045 59.7532 30.924C59.9472 32.163 60.0249 33.9588 59.9931 36.2941H40.0154C40.1354 39.0052 41.0807 40.9089 42.887 41.9983C43.9806 42.6769 45.2964 43.018 46.8416 43.018C48.4679 43.018 49.7979 42.6038 50.8174 41.779C51.3783 41.33 51.8722 40.7106 52.2955 39.917H59.6156C59.4216 41.518 58.5326 43.1502 56.9592 44.8068C54.5039 47.4345 51.0643 48.75 46.6441 48.75C42.9928 48.75 39.772 47.6433 36.9886 45.4229C34.1911 43.2059 32.8011 39.5934 32.8011 34.5957C32.8011 29.9078 34.0606 26.3126 36.5759 23.8103C39.0982 21.315 42.3614 20.0586 46.3795 20.0586C48.7678 20.0586 50.9162 20.4832 52.8282 21.3289ZM7.39067 31.7245V41.4797H16.3935C18.0022 41.4797 19.2581 41.2639 20.1506 40.8358C21.7769 40.0354 22.5883 38.518 22.5883 36.2697C22.5883 34.3625 21.8051 33.0574 20.2282 32.344C19.3463 31.9472 18.108 31.7384 16.5205 31.7245H7.39067ZM7.39067 17.6015V25.6723H16.4076C18.0128 25.6723 19.3216 25.3695 20.3305 24.7639C21.3324 24.1584 21.8369 23.0864 21.8369 21.5551C21.8369 19.8463 21.1736 18.7222 19.8472 18.1723C18.6971 17.7929 17.2367 17.6015 15.4622 17.6015H7.39067ZM27.5271 15.1479C28.6595 16.7036 29.2275 18.5621 29.2275 20.7303C29.2275 22.9611 28.6596 24.7604 27.513 26.1177C26.871 26.8764 25.9291 27.5725 24.6838 28.1989C26.5746 28.8811 27.9998 29.9565 28.97 31.4287C29.9295 32.8973 30.4128 34.6862 30.4128 36.7883C30.4128 38.9565 29.8625 40.902 28.7583 42.6212C28.0598 43.7593 27.1849 44.7198 26.1337 45.4994C24.9519 46.3939 23.5584 47.0029 21.9462 47.337C20.334 47.6676 18.5913 47.8277 16.7075 47.8277H0V11.25H17.9175C22.4401 11.3161 25.6397 12.6143 27.5271 15.1479Z" fill="#1769FF"/>
</g>
<defs>
<clipPath id="clip0_5_99">
<rect width="60" height="60" fill="white"/>
</clipPath>
</defs>
</svg>
