<svg width="48" height="48" viewBox="0 0 48 48" fill="none" xmlns="http://www.w3.org/2000/svg">
<g clip-path="url(#clip0_4_28)">
<path d="M24 0C10.77 0 0 10.77 0 24C0 37.23 10.77 48 24 48C37.23 48 48 37.23 48 24C48 10.77 37.23 0 24 0ZM24 46C11.87 46 1.99997 36.13 1.99997 24C1.99997 11.87 11.87 1.99997 24 1.99997C36.13 1.99997 46 11.87 46 24C46 36.13 36.13 46 24 46Z" fill="#3D84B9"/>
<path d="M34.29 26.3L25.0001 35.59V10.04C25.0001 9.54002 24.6401 9.09002 24.15 9.01998C23.5301 8.92998 23 9.40999 23 10.01V35.6L13.71 26.3C13.31 25.92 12.68 25.93 12.3 26.32C11.93 26.71 11.93 27.32 12.3 27.71L23.3 38.71C23.69 39.1 24.32 39.1 24.71 38.71L35.71 27.71C36.09 27.31 36.08 26.68 35.69 26.3C35.3 25.93 34.68 25.93 34.29 26.3Z" fill="#3D84B9"/>
</g>
<defs>
<clipPath id="clip0_4_28">
<rect width="48" height="48" fill="white"/>
</clipPath>
</defs>
</svg>
