<svg width="56" height="56" viewBox="0 0 56 56" fill="none" xmlns="http://www.w3.org/2000/svg">
<path d="M47.7167 47.7166H39.4193V34.7199C39.4193 31.6213 39.3633 27.6313 35.1027 27.6313C30.7813 27.6313 30.1187 31.01 30.1187 34.4913V47.7166H21.8213V20.9907H29.7873V24.6446H29.8993C31.5233 21.8727 34.5473 20.2113 37.758 20.328C46.1673 20.328 47.7213 25.858 47.7213 33.0586L47.7167 47.7119V47.7166ZM12.46 17.3367C11.1854 17.3305 9.9647 16.8218 9.06299 15.921C8.16127 15.0201 7.65136 13.7999 7.644 12.5254C7.644 9.88403 9.81867 7.70937 12.46 7.70937C15.1013 7.70937 17.2713 9.88403 17.276 12.5254C17.276 15.1667 15.1013 17.3367 12.46 17.3367ZM16.6087 47.7166H8.302V20.9907H16.6087V47.7166ZM51.8467 6.93615e-05H4.13C3.04804 -0.00621488 2.00731 0.414746 1.23397 1.17147C0.460642 1.9282 0.0171951 2.95955 0 4.04139V51.9585C0.0171951 53.0404 0.460642 54.0717 1.23397 54.8285C2.00731 55.5852 3.04804 56.0062 4.13 55.9999H51.8513C52.9358 56.0087 53.9799 55.5891 54.7567 54.8323C55.5336 54.0756 55.9804 53.0429 56 51.9585V4.03672C55.9804 2.95325 55.5333 1.92146 54.7562 1.16621C53.979 0.410962 52.9349 -0.00652516 51.8513 0.00473567L51.8467 6.93615e-05Z" fill="#0A66C2"/>
</svg>
